<svg id="_x31_" enable-background="new 0 0 24 24" height="512" viewBox="0 0 24 24" width="512" xmlns="http://www.w3.org/2000/svg"><g><path d="m6.504 21.346c-.214 0-.43-.046-.635-.142-.536-.248-.869-.769-.869-1.36v-15.344c0-.276.224-.5.5-.5h13c.276 0 .5.224.5.5v15.344c0 .591-.333 1.112-.869 1.361-.537.248-1.149.166-1.6-.215l-4.531-3.835-4.531 3.834c-.279.236-.619.357-.965.357zm-.504-16.346v14.844c0 .296.222.422.29.454.068.033.31.119.532-.072l4.854-4.107c.188-.157.459-.157.646 0l4.854 4.107c.223.19.464.104.532.072.07-.032.292-.158.292-.454v-14.844z"/></g><g><path d="m19.5 5h-15c-.827 0-1.5-.673-1.5-1.5s.673-1.5 1.5-1.5h15c.827 0 1.5.673 1.5 1.5s-.673 1.5-1.5 1.5zm-15-2c-.275 0-.5.224-.5.5s.225.5.5.5h15c.275 0 .5-.224.5-.5s-.225-.5-.5-.5z"/></g><g><path d="m13.5 3c-.276 0-.5-.224-.5-.5v-.5c0-.551-.448-1-1-1s-1 .449-1 1v.5c0 .276-.224.5-.5.5s-.5-.224-.5-.5v-.5c0-1.103.897-2 2-2s2 .897 2 2v.5c0 .276-.224.5-.5.5z"/></g><g><path d="m10.5 24c-.276 0-.5-.224-.5-.5v-5.77c0-.276.224-.5.5-.5s.5.224.5.5v5.77c0 .276-.224.5-.5.5z"/></g><g><path d="m13.5 24c-.276 0-.5-.224-.5-.5v-5.77c0-.276.224-.5.5-.5s.5.224.5.5v5.77c0 .276-.224.5-.5.5z"/></g></svg>